<?xml version="1.0" standalone="no"?><!DOCTYPE svg PUBLIC "-//W3C//DTD SVG 1.1//EN" "http://www.w3.org/Graphics/SVG/1.1/DTD/svg11.dtd"><svg class="icon" width="32px" height="32.00px" viewBox="0 0 1024 1024" version="1.1" xmlns="http://www.w3.org/2000/svg"><path d="M512 510.72m-457.984 0a457.984 457.984 0 1 0 915.968 0 457.984 457.984 0 1 0-915.968 0Z" fill="#EBFAFF" /><path d="M291.3792 265.984m88.064 0l261.632 0q88.064 0 88.064 88.064l0 304.384q0 88.064-88.064 88.064l-261.632 0q-88.064 0-88.064-88.064l0-304.384q0-88.064 88.064-88.064Z" fill="#059DFF" /><path d="M529.664 526.08H393.3696a23.7568 23.7568 0 0 1 0-47.4624h136.2944a23.7568 23.7568 0 0 1 0 47.4624zM616.3456 420.8128H393.3696a23.7056 23.7056 0 1 1 0-47.4112h222.976a23.7056 23.7056 0 1 1 0 47.4112z" fill="#FFFFFF" /><path d="M644.7104 643.0208m-116.9408 0a116.9408 116.9408 0 1 0 233.8816 0 116.9408 116.9408 0 1 0-233.8816 0Z" fill="#97D8FF" /><path d="M708.9152 640.256a23.7056 23.7056 0 0 0-33.3824-3.1744l-7.1168 5.888v-56.32a23.7056 23.7056 0 0 0-47.4112 0v56.7808c-2.6624-2.1504-4.5568-3.7888-5.4784-4.608a23.7056 23.7056 0 0 0-35.84 30.72c2.304 3.2768 2.7648 3.9424 50.2784 42.6496a23.7568 23.7568 0 0 0 30.1056 0l46.08-37.9904a23.7056 23.7056 0 0 0 2.7648-33.9456z" fill="#FFFFFF" /></svg>