<?xml version="1.0" standalone="no"?><!DOCTYPE svg PUBLIC "-//W3C//DTD SVG 1.1//EN" "http://www.w3.org/Graphics/SVG/1.1/DTD/svg11.dtd"><svg class="icon" width="32px" height="32.00px" viewBox="0 0 1024 1024" version="1.1" xmlns="http://www.w3.org/2000/svg"><path d="M512.2048 512m-457.984 0a457.984 457.984 0 1 0 915.968 0 457.984 457.984 0 1 0-915.968 0Z" fill="#FFF1F0" /><path d="M704.6144 567.9616L498.3808 724.992a49.2544 49.2544 0 0 1-29.8496 10.24H388.1984A76.1856 76.1856 0 0 1 312.32 658.5856V338.7904a76.1856 76.1856 0 0 1 75.8784-76.4928h260.2496a76.1856 76.1856 0 0 1 75.8784 76.4928v189.44a50.176 50.176 0 0 1-19.712 39.7312z" fill="#F65856" /><path d="M773.12 624.0768l-25.6-31.3856a16.7936 16.7936 0 0 0-23.4496-2.7648l-147.0976 113.92a16.9472 16.9472 0 0 0-5.12 6.2464l-18.3296 39.168a17.0496 17.0496 0 0 0 15.36 24.32 15.7696 15.7696 0 0 0 3.4816-0.3584l46.848-9.7792a17.0496 17.0496 0 0 0 6.912-3.1744l143.9744-111.9232a17.3056 17.3056 0 0 0 6.5024-11.5712 16.9984 16.9984 0 0 0-3.4816-12.6976z" fill="#FFA4A4" /><path d="M586.24 431.9744h-143.36a24.1664 24.1664 0 0 1 0-48.3328h143.36a24.1664 24.1664 0 0 1 0 48.3328zM586.24 554.496h-143.36a24.1664 24.1664 0 1 1 0-48.2816h143.36a24.1664 24.1664 0 1 1 0 48.2816z" fill="#FFFFFF" /></svg>