<?xml version="1.0" standalone="no"?><!DOCTYPE svg PUBLIC "-//W3C//DTD SVG 1.1//EN" "http://www.w3.org/Graphics/SVG/1.1/DTD/svg11.dtd"><svg class="icon" width="32px" height="32.00px" viewBox="0 0 1024 1024" version="1.1" xmlns="http://www.w3.org/2000/svg"><path d="M512.8192 512m-457.984 0a457.984 457.984 0 1 0 915.968 0 457.984 457.984 0 1 0-915.968 0Z" fill="#EBFAFF" /><path d="M250.4704 251.7504m113.8176 0l299.7248 0q113.8176 0 113.8176 113.8176l0 299.7248q0 113.8176-113.8176 113.8176l-299.7248 0q-113.8176 0-113.8176-113.8176l0-299.7248q0-113.8176 113.8176-113.8176Z" fill="#059DFF" /><path d="M403.5584 692.3264a26.6752 26.6752 0 0 1-26.6752-26.7264V365.6704a26.6752 26.6752 0 0 1 26.6752-26.6752h148.7872a103.7824 103.7824 0 0 1 0 207.5136H430.08V665.6a26.6752 26.6752 0 0 1-26.5216 26.7264zM430.08 493.1584h122.112a50.432 50.432 0 0 0 0-100.8128H430.08z" fill="#FFFFFF" /><path d="M716.3392 542.72h-72.3456a59.392 59.392 0 0 0-51.5072 29.7472l-36.1984 62.6176a59.648 59.648 0 0 0 0 59.4944l36.1984 62.6688a59.4944 59.4944 0 0 0 51.5072 29.7472h72.3456a59.5456 59.5456 0 0 0 51.6608-29.5424l35.84-62.6688a59.392 59.392 0 0 0 0-59.4944l-35.84-62.6176a59.4432 59.4432 0 0 0-51.6608-29.952z" fill="#97D8FF" /><path d="M680.1408 741.632a76.8 76.8 0 1 1 76.8-76.8 76.8 76.8 0 0 1-76.8 76.8z m0-113.152a36.608 36.608 0 1 0 36.608 36.5568 36.5568 36.5568 0 0 0-36.608-36.5568z" fill="#FFFFFF" /></svg>