<?xml version="1.0" standalone="no"?><!DOCTYPE svg PUBLIC "-//W3C//DTD SVG 1.1//EN" "http://www.w3.org/Graphics/SVG/1.1/DTD/svg11.dtd"><svg class="icon" width="32px" height="32.00px" viewBox="0 0 1024 1024" version="1.1" xmlns="http://www.w3.org/2000/svg"><path d="M512 512m-457.984 0a457.984 457.984 0 1 0 915.968 0 457.984 457.984 0 1 0-915.968 0Z" fill="#FFF5E9" /><path d="M512 516.6592m-291.84 0a291.84 291.84 0 1 0 583.68 0 291.84 291.84 0 1 0-583.68 0Z" fill="#FF9738" /><path d="M456.2944 508.2112c20.48-13.7216 13.5168-47.9232 7.0656-62.3104s-30.72-62.0032-45.4144-89.8048a73.472 73.472 0 0 0-18.8928 42.0352c-2.2528 21.7088-6.2976 65.6384-11.8272 111.7184 32.2048 15.9232 48.9984 11.9296 69.0688-1.6384z" fill="#FFFFFF" /><path d="M706.56 435.2a21.8624 21.8624 0 0 0-24.832-21.248c-20.8384 2.9184-47.1552 3.3792-62.976-15.36a79.8208 79.8208 0 0 1-17.2544-34.816c-2.304-9.9328-16.896-42.3936-86.4768-42.3936a159.8976 159.8976 0 0 0-65.5872 12.4416c14.0288 27.0848 41.3184 79.9232 48.6912 96.3584 13.2096 29.3888 18.688 82.7392-20.48 109.1584A94.0544 94.0544 0 0 1 423.3216 558.08a109.056 109.056 0 0 1-40.96-8.96 683.4688 683.4688 0 0 1-16.896 88.4736c-1.9456 5.9904-3.8912 12.3392-5.7344 18.4832A30.72 30.72 0 0 0 389.12 695.808h202.2912a23.1424 23.1424 0 0 0 21.6576-31.1808 124.3648 124.3648 0 0 0-50.8928-62.3104c0.6144-29.8496 13.8752-57.0368 57.6512-61.44C660.48 536.3712 708.608 529.8176 706.56 435.2z m-143.36 2.9696a21.2992 21.2992 0 1 1 21.2992-21.2992 21.248 21.248 0 0 1-21.7088 21.3504z" fill="#FFFFFF" /></svg>