<?xml version="1.0" standalone="no"?><!DOCTYPE svg PUBLIC "-//W3C//DTD SVG 1.1//EN" "http://www.w3.org/Graphics/SVG/1.1/DTD/svg11.dtd"><svg class="icon" width="32px" height="32.00px" viewBox="0 0 1024 1024" version="1.1" xmlns="http://www.w3.org/2000/svg"><path d="M546.315378 66.395022c5.296356 21.105778 8.112356 43.201422 8.112355 65.951289 0 75.872711-31.277511 144.4352-81.635555 193.513245 50.761956-19.825778 106.001067-30.72 163.7888-30.72 121.742222 0 232.197689 48.315733 313.252978 126.805333-39.446756-192.768-202.996622-340.3264-403.518578-355.549867zM102.661689 332.379022C78.506667 387.350756 65.092267 448.108089 65.092267 512c0 122.020978 48.907378 232.618667 128.182044 313.264356-4.630756-25.895822-7.048533-52.559644-7.048533-79.786667 0-142.916267 66.577067-270.279111 170.404978-352.779378-23.034311 6.388622-47.3088 9.807644-72.379734 9.807645-69.905067 0.005689-133.620622-26.550044-181.589333-70.126934z" fill="#09BED1" /><path d="M512 958.907733c246.818133 0 446.907733-200.083911 446.907733-446.902044 0-30.850844-3.1232-60.967822-9.079466-90.055111-81.055289-78.495289-191.510756-126.805333-313.252978-126.805334-57.782044 0-113.026844 10.888533-163.7888 30.72 50.363733-49.072356 81.635556-117.640533 81.635555-193.513244 0-22.749867-2.816-44.839822-8.112355-65.951289a453.639396 453.639396 0 0 0-34.315378-1.297067c-182.926222 0-340.178489 109.903644-409.338311 267.286756 47.9744 43.576889 111.684267 70.132622 181.595022 70.132622 25.070933 0 49.345422-3.419022 72.379734-9.807644-103.827911 82.500267-170.404978 209.863111-170.404978 352.779378 0 27.227022 2.417778 53.890844 7.048533 79.786666 81.083733 82.466133 193.928533 133.626311 318.725689 133.626311z" fill="#16C8DB" /><path d="M261.063111 201.5232l15.746845-53.845333 15.746844 53.845333 53.845333 15.746844-53.845333 15.746845-15.746844 53.845333-15.746845-53.845333-53.845333-15.746845z" fill="#A2E9FC" opacity=".6" /><path d="M682.012444 772.278044l19.882667-67.987911 19.882667 67.987911 67.987911 19.882667-67.987911 19.882667-19.882667 67.987911-19.882667-67.987911-67.987911-19.882667zM322.349511 334.307556l9.739378-33.297067 9.733689 33.297067 33.297066 9.733688-33.297066 9.739378-9.733689 33.291378-9.739378-33.291378-33.291378-9.739378z" fill="#A2E9FC" /><path d="M771.498667 661.589333l-63.544889-110.062933c-9.9328 17.470578-22.163911 33.518933-36.5568 47.911822-20.662044 20.662044-44.726044 36.886756-71.5264 48.224711-23.278933 9.847467-47.7696 15.621689-72.988445 17.225956l59.727645 103.452444c6.405689 11.093333 18.067911 17.3056 30.043022 17.3056 5.870933 0 11.815822-1.490489 17.2544-4.630755l2.679467-1.547378 39.839289-69.057422 79.729777 0.028444 2.679467-1.547378c16.526222-9.551644 22.209422-30.7712 12.663467-47.303111zM353.149156 599.438222c-14.523733-14.523733-26.845867-30.737067-36.829867-48.389689l-63.823645 110.546489c-9.545956 16.531911-3.862756 37.745778 12.674845 47.291734l2.679467 1.547377 79.729777-0.028444 39.839289 69.057422 2.679467 1.547378c16.531911 9.545956 37.745778 3.862756 47.291733-12.669156l59.7504-103.492266c-25.0368-1.649778-49.345422-7.412622-72.465066-17.186134-26.800356-11.337956-50.864356-27.562667-71.5264-48.224711z" fill="#FFFFFF" /><path d="M707.197156 493.215289l0.1536-0.568889c0.318578-1.188978 0.625778-2.383644 0.927288-3.578311 0.1536-0.625778 0.3072-1.245867 0.455112-1.871645 0.125156-0.529067 0.256-1.058133 0.375466-1.592888 0.244622-1.058133 0.477867-2.121956 0.705422-3.185778l0.170667-0.796445c2.019556-9.716622 3.316622-19.598222 3.885511-29.604977 0.011378-0.147911 0.017067-0.290133 0.028445-0.438045 0.039822-0.722489 0.073956-1.444978 0.108089-2.167467 0.056889-1.217422 0.1024-2.434844 0.136533-3.652266 0.011378-0.329956 0.011378-0.659911 0.022755-0.989867 0.034133-1.490489 0.056889-2.980978 0.056889-4.471467 0-9.454933-0.659911-18.807467-1.934222-28.034844-0.170667-1.245867-0.352711-2.491733-0.551822-3.7376-0.216178-1.376711-0.449422-2.747733-0.694045-4.118756l-0.068266-0.3584c-0.193422-1.052444-0.392533-2.104889-0.603022-3.151644-0.079644-0.392533-0.1536-0.785067-0.233245-1.1776-0.193422-0.944356-0.392533-1.883022-0.603022-2.821689-0.142222-0.659911-0.290133-1.314133-0.443733-1.968355l-0.187734-0.807823C687.957333 304.952889 607.749689 238.364444 512.284444 238.364444c-111.36 0-201.955556 90.595556-201.955555 201.955556 0 4.272356 0.136533 8.510578 0.398222 12.720356 0.017067 0.290133 0.039822 0.574578 0.056889 0.864711 6.9632 104.362667 93.565156 187.283911 199.412622 188.359111l0.011378-0.022756c0.6656 0.005689 1.319822 0.011378 1.974044 0.011378H512.420978c0.4608 0 0.927289 0 1.393778-0.005689l0.011377 0.022756c92.376178-0.705422 170.194489-63.749689 193.371023-149.054578z m-104.863289-53.896533l-28.381867 27.665066c-0.398222 0.392533-0.585956 0.955733-0.489244 1.507556l6.701511 39.0656c1.4336 8.3456-1.934222 16.617244-8.783645 21.595022s-15.758222 5.620622-23.250489 1.678222l-35.083377-18.443378c-0.494933-0.261689-1.086578-0.261689-1.581512 0l-35.083377 18.443378c-3.259733 1.712356-6.786844 2.56-10.296889 2.56-4.5568 0-9.085156-1.427911-12.9536-4.238222-6.849422-4.977778-10.217244-13.249422-8.783645-21.595022l6.701511-39.0656c0.096711-0.551822-0.091022-1.115022-0.489244-1.501867l-28.381867-27.665067c-6.064356-5.910756-8.203378-14.580622-5.586489-22.6304 2.616889-8.049778 9.443556-13.806933 17.823289-15.024355l39.224889-5.700267a1.6896 1.6896 0 0 0 1.28-0.932978l17.538845-35.538488c3.748978-7.588978 11.332267-12.305067 19.797333-12.305067s16.054044 4.716089 19.797333 12.305067l17.538845 35.544177c0.250311 0.500622 0.728178 0.847644 1.28 0.927289l39.224889 5.700267c8.379733 1.217422 15.2064 6.974578 17.823289 15.024355s0.477867 16.719644-5.586489 22.624712z" fill="#FFFFFF" /></svg>