<?xml version="1.0" standalone="no"?><!DOCTYPE svg PUBLIC "-//W3C//DTD SVG 1.1//EN" "http://www.w3.org/Graphics/SVG/1.1/DTD/svg11.dtd"><svg class="icon" width="32px" height="32.00px" viewBox="0 0 1024 1024" version="1.1" xmlns="http://www.w3.org/2000/svg"><path d="M546.315378 66.395022c5.296356 21.105778 8.112356 43.201422 8.112355 65.951289 0 75.872711-31.277511 144.4352-81.635555 193.513245 50.761956-19.825778 106.001067-30.72 163.7888-30.72 121.742222 0 232.197689 48.315733 313.252978 126.805333-39.446756-192.768-202.996622-340.3264-403.518578-355.549867zM102.661689 332.379022C78.506667 387.350756 65.092267 448.108089 65.092267 512c0 122.020978 48.907378 232.618667 128.182044 313.264356-4.630756-25.895822-7.048533-52.559644-7.048533-79.786667 0-142.916267 66.577067-270.279111 170.404978-352.779378-23.034311 6.388622-47.3088 9.807644-72.379734 9.807645-69.905067 0.005689-133.620622-26.550044-181.589333-70.126934z" fill="#E148ED" /><path d="M512 958.907733c246.818133 0 446.907733-200.083911 446.907733-446.902044 0-30.850844-3.1232-60.967822-9.079466-90.055111-81.055289-78.495289-191.510756-126.805333-313.252978-126.805334-57.782044 0-113.026844 10.888533-163.7888 30.72 50.363733-49.072356 81.635556-117.640533 81.635555-193.513244 0-22.749867-2.816-44.839822-8.112355-65.951289a453.639396 453.639396 0 0 0-34.315378-1.297067c-182.926222 0-340.178489 109.903644-409.338311 267.286756 47.9744 43.576889 111.684267 70.132622 181.595022 70.132622 25.070933 0 49.345422-3.419022 72.379734-9.807644-103.827911 82.500267-170.404978 209.863111-170.404978 352.779378 0 27.227022 2.417778 53.890844 7.048533 79.786666 81.083733 82.466133 193.928533 133.626311 318.725689 133.626311z" fill="#E765F1" /><path d="M261.063111 201.5232l15.746845-53.845333 15.746844 53.845333 53.845333 15.746844-53.845333 15.746845-15.746844 53.845333-15.746845-53.845333-53.845333-15.746845z" fill="#EBA9F7" opacity=".6" /><path d="M682.012444 772.278044l19.882667-67.987911 19.882667 67.987911 67.987911 19.882667-67.987911 19.882667-19.882667 67.987911-19.882667-67.987911-67.987911-19.882667zM322.349511 334.307556l9.739378-33.297067 9.733689 33.297067 33.297066 9.733688-33.297066 9.739378-9.733689 33.291378-9.739378-33.291378-33.291378-9.739378z" fill="#EBA9F7" /><path d="M512 511.977244m-31.288889 0a31.288889 31.288889 0 1 0 62.577778 0 31.288889 31.288889 0 1 0-62.577778 0Z" fill="#FFFFFF" /><path d="M512 245.76c-147.040711 0-266.24 119.199289-266.24 266.24s119.199289 266.24 266.24 266.24 266.24-119.199289 266.24-266.24-119.199289-266.24-266.24-266.24zM312.137956 523.355022h-31.857778c-6.257778 0-11.377778-5.12-11.377778-11.377778s5.12-11.377778 11.377778-11.377777h31.857778c6.257778 0 11.377778 5.12 11.377777 11.377777s-5.12 11.377778-11.377777 11.377778zM500.622222 280.257422c0-6.257778 5.12-11.377778 11.377778-11.377778s11.377778 5.12 11.377778 11.377778v31.857778c0 6.257778-5.12 11.377778-11.377778 11.377778s-11.377778-5.12-11.377778-11.377778v-31.857778z m-121.901511 381.092978l-22.528 22.528c-4.425956 4.425956-11.667911 4.425956-16.088178 0-4.425956-4.425956-4.425956-11.667911 0-16.088178l22.528-22.528c4.425956-4.425956 11.667911-4.425956 16.088178 0 4.425956 4.420267 4.425956 11.662222 0 16.088178z m0-282.646756c-4.425956 4.425956-11.667911 4.425956-16.088178 0l-22.528-22.528c-4.425956-4.425956-4.425956-11.667911 0-16.088177 4.425956-4.425956 11.667911-4.425956 16.088178 0l22.528 22.528c4.425956 4.420267 4.425956 11.662222 0 16.088177zM523.377778 743.697067c0 6.257778-5.12 11.377778-11.377778 11.377777s-11.377778-5.12-11.377778-11.377777v-31.857778c0-6.257778 5.12-11.377778 11.377778-11.377778s11.377778 5.12 11.377778 11.377778v31.857778z m-11.377778-177.675378c-29.8496 0-54.044444-24.194844-54.044444-54.044445 0-4.721778 0.608711-9.301333 1.746488-13.664711 0.250311-1.530311 0.6656-3.060622 1.28-4.579555l40.772267-100.033422c3.743289-9.187556 16.748089-9.187556 20.491378 0l40.772267 100.033422c0.620089 1.518933 1.035378 3.054933 1.28 4.579555 1.137778 4.363378 1.746489 8.942933 1.746488 13.664711 0 29.8496-24.194844 54.044444-54.044444 54.044445z m171.895467 117.851022c-4.425956 4.425956-11.667911 4.425956-16.088178 0l-22.528-22.528c-4.425956-4.425956-4.425956-11.667911 0-16.088178 4.425956-4.425956 11.667911-4.425956 16.088178 0l22.528 22.528c4.425956 4.425956 4.425956 11.667911 0 16.088178z m0-327.697067l-22.528 22.528c-4.425956 4.425956-11.667911 4.425956-16.088178 0s-4.425956-11.667911 0-16.088177l22.528-22.528c4.425956-4.425956 11.667911-4.425956 16.088178 0 4.425956 4.420267 4.425956 11.662222 0 16.088177z m59.824355 167.179378h-31.857778c-6.257778 0-11.377778-5.12-11.377777-11.377778s5.12-11.377778 11.377777-11.377777h31.857778c6.257778 0 11.377778 5.12 11.377778 11.377777s-5.12 11.377778-11.377778 11.377778z" fill="#FFFFFF" /></svg>