<?xml version="1.0" standalone="no"?><!DOCTYPE svg PUBLIC "-//W3C//DTD SVG 1.1//EN" "http://www.w3.org/Graphics/SVG/1.1/DTD/svg11.dtd"><svg class="icon" width="32px" height="32.00px" viewBox="0 0 1024 1024" version="1.1" xmlns="http://www.w3.org/2000/svg"><path d="M512 510.72m-457.984 0a457.984 457.984 0 1 0 915.968 0 457.984 457.984 0 1 0-915.968 0Z" fill="#FFE9F2" /><path d="M230.719611 405.802518m65.869911-26.399442l312.002862-125.044978q65.869911-26.399442 92.269354 39.470469l65.293858 162.916346q26.399442 65.869911-39.470468 92.269354l-312.002863 125.044977q-65.869911 26.399442-92.269353-39.470469l-65.293859-162.916346q-26.399442-65.869911 39.470469-92.269353Z" fill="#FFC2D8" /><path d="M245.504 379.8016m65.2288 0l402.5856 0q65.2288 0 65.2288 65.2288l0 248.3712q0 65.2288-65.2288 65.2288l-402.5856 0q-65.2288 0-65.2288-65.2288l0-248.3712q0-65.2288 65.2288-65.2288Z" fill="#FF447F" /><path d="M465.92 533.8624H325.5296a3.7376 3.7376 0 0 1-2.4576-0.9728c-24.3712-22.5792-8.704-50.5856 13.4656-50.5856h140.5952a3.6352 3.6352 0 0 1 2.4576 0.9728c24.3712 22.5792 8.7552 50.5856-13.6704 50.5856z" fill="#FFFFFF" /></svg>