<?xml version="1.0" standalone="no"?><!DOCTYPE svg PUBLIC "-//W3C//DTD SVG 1.1//EN" "http://www.w3.org/Graphics/SVG/1.1/DTD/svg11.dtd"><svg class="icon" width="32px" height="32.00px" viewBox="0 0 1024 1024" version="1.1" xmlns="http://www.w3.org/2000/svg"><path d="M546.315378 66.395022c5.296356 21.105778 8.112356 43.201422 8.112355 65.951289 0 75.872711-31.277511 144.4352-81.635555 193.513245 50.761956-19.825778 106.001067-30.72 163.7888-30.72 121.742222 0 232.197689 48.315733 313.252978 126.805333-39.446756-192.768-202.996622-340.3264-403.518578-355.549867zM102.661689 332.379022C78.506667 387.350756 65.092267 448.108089 65.092267 512c0 122.020978 48.907378 232.618667 128.182044 313.264356-4.630756-25.895822-7.048533-52.559644-7.048533-79.786667 0-142.916267 66.577067-270.279111 170.404978-352.779378-23.034311 6.388622-47.3088 9.807644-72.379734 9.807645-69.905067 0.005689-133.620622-26.550044-181.589333-70.126934z" fill="#F4A067" /><path d="M512 958.907733c246.818133 0 446.907733-200.083911 446.907733-446.902044 0-30.850844-3.1232-60.967822-9.079466-90.055111-81.055289-78.495289-191.510756-126.805333-313.252978-126.805334-57.782044 0-113.026844 10.888533-163.7888 30.72 50.363733-49.072356 81.635556-117.640533 81.635555-193.513244 0-22.749867-2.816-44.839822-8.112355-65.951289a453.639396 453.639396 0 0 0-34.315378-1.297067c-182.926222 0-340.178489 109.903644-409.338311 267.286756 47.9744 43.576889 111.684267 70.132622 181.595022 70.132622 25.070933 0 49.345422-3.419022 72.379734-9.807644-103.827911 82.500267-170.404978 209.863111-170.404978 352.779378 0 27.227022 2.417778 53.890844 7.048533 79.786666 81.083733 82.466133 193.928533 133.626311 318.725689 133.626311z" fill="#F4B364" /><path d="M261.063111 201.5232l15.746845-53.845333 15.746844 53.845333 53.845333 15.746844-53.845333 15.746845-15.746844 53.845333-15.746845-53.845333-53.845333-15.746845z" fill="#FCD0B1" opacity=".6" /><path d="M682.012444 772.278044l19.882667-67.987911 19.882667 67.987911 67.987911 19.882667-67.987911 19.882667-19.882667 67.987911-19.882667-67.987911-67.987911-19.882667zM322.349511 334.307556l9.739378-33.297067 9.733689 33.297067 33.297066 9.733688-33.297066 9.739378-9.733689 33.291378-9.739378-33.291378-33.291378-9.739378z" fill="#FCD0B1" /><path d="M775.259022 707.731911L747.690667 308.167111c-1.029689-15.422578-7.799467-29.730133-19.063467-40.288711-11.269689-10.564267-25.981156-16.384-41.415111-16.384H336.799289c-15.433956 0-30.145422 5.819733-41.415111 16.384-11.264 10.558578-18.033778 24.866133-19.063467 40.288711l-27.579733 399.5648c-1.115022 16.731022 4.807111 33.342578 16.253155 45.579378 11.411911 12.202667 27.534222 19.2 44.225423 19.2h405.5552c16.6912 0 32.813511-6.997333 44.225422-19.2 11.451733-12.2368 17.373867-28.848356 16.258844-45.579378zM648.408178 375.125333C618.3936 438.715733 567.3984 476.683378 512 476.683378S405.6064 438.715733 375.591822 375.125333c-2.679467-5.6832-0.250311-12.464356 5.432889-15.143822 5.6832-2.685156 12.464356-0.250311 15.143822 5.432889 26.157511 55.426844 69.461333 88.513422 115.831467 88.513422 46.364444 0 89.668267-33.092267 115.831467-88.513422 2.685156-5.6832 9.460622-8.118044 15.143822-5.432889 5.6832 2.679467 8.118044 9.460622 5.432889 15.143822z" fill="#FFFFFF" /></svg>