<?xml version="1.0" standalone="no"?><!DOCTYPE svg PUBLIC "-//W3C//DTD SVG 1.1//EN" "http://www.w3.org/Graphics/SVG/1.1/DTD/svg11.dtd"><svg class="icon" width="32px" height="32.00px" viewBox="0 0 1024 1024" version="1.1" xmlns="http://www.w3.org/2000/svg"><path d="M512.5632 512m-457.984 0a457.984 457.984 0 1 0 915.968 0 457.984 457.984 0 1 0-915.968 0Z" fill="#E3FFFC" /><path d="M773.12 448.9728L706.56 395.264V314.0608a36.1984 36.1984 0 0 0-72.3968 0v22.6816L540.2624 261.12a44.1344 44.1344 0 0 0-55.4496 0L252.2112 448.9728A44.1344 44.1344 0 0 0 279.9104 527.36h31.7952v184.8832a50.4832 50.4832 0 0 0 50.432 50.6368h300.8a50.4832 50.4832 0 0 0 50.432-50.4832V527.36h31.7952A44.1344 44.1344 0 0 0 773.12 448.9728z" fill="#16D0AF" /><path d="M611.9936 580.608l-70.5024 70.5024a40.96 40.96 0 0 1-57.9072 0l-70.8608-70.8608a79.616 79.616 0 0 1 99.84-122.88 79.616 79.616 0 0 1 99.4304 123.1872z" fill="#FFFFFF" /><path d="M706.56 314.0608a36.1984 36.1984 0 0 0-72.3968 0v22.6816L706.56 395.264z" fill="#ADF0EA" /></svg>