<?xml version="1.0" standalone="no"?><!DOCTYPE svg PUBLIC "-//W3C//DTD SVG 1.1//EN" "http://www.w3.org/Graphics/SVG/1.1/DTD/svg11.dtd"><svg class="icon" width="32px" height="32.00px" viewBox="0 0 1024 1024" version="1.1" xmlns="http://www.w3.org/2000/svg"><path d="M508.5696 512m-457.984 0a457.984 457.984 0 1 0 915.968 0 457.984 457.984 0 1 0-915.968 0Z" fill="#FFF5E9" /><path d="M663.04 269.6192a59.4944 59.4944 0 0 0-84.1728 0l-65.9456 65.9456L446.976 269.6192a59.4432 59.4432 0 0 0-84.1216 0 59.5456 59.5456 0 0 0 0 84.1216l101.2736 101.3248 46.7456-46.7456 48.7936 48.7936 103.3728-103.3728a59.4432 59.4432 0 0 0 0-84.1216z" fill="#FECC87" /><path d="M723.5584 334.848H302.08a50.1248 50.1248 0 0 0-50.1248 50.0736v46.7968a50.0736 50.0736 0 0 0 46.4384 49.92 69.0176 69.0176 0 0 0-0.9216 10.8544v197.2736a71.68 71.68 0 0 0 71.68 71.68h286.72a71.68 71.68 0 0 0 71.68-71.68V492.4928a69.0176 69.0176 0 0 0-0.9216-10.8544 50.0736 50.0736 0 0 0 46.4384-49.92v-46.7968a50.0736 50.0736 0 0 0-49.5104-50.0736z" fill="#FF9738" /><path d="M588.4928 631.9616l-53.5552 53.5552a31.1296 31.1296 0 0 1-44.032 0l-53.8112-53.8624a60.5696 60.5696 0 0 1 0-85.248 60.6208 60.6208 0 0 1 75.5712-8.0384 60.4672 60.4672 0 0 1 75.5712 93.5936z" fill="#FFFFFF" /></svg>