<?xml version="1.0" standalone="no"?><!DOCTYPE svg PUBLIC "-//W3C//DTD SVG 1.1//EN" "http://www.w3.org/Graphics/SVG/1.1/DTD/svg11.dtd"><svg class="icon" width="32px" height="32.00px" viewBox="0 0 1024 1024" version="1.1" xmlns="http://www.w3.org/2000/svg"><path d="M513.8944 512m-457.984 0a457.984 457.984 0 1 0 915.968 0 457.984 457.984 0 1 0-915.968 0Z" fill="#FFF5E9" /><path d="M395.776 255.5392h236.2368a80.64 80.64 0 0 1 80.64 80.64v294.0928H315.0848V336.2304A80.64 80.64 0 0 1 395.776 255.5392z" fill="#FECC87" /><path d="M705.536 769.2288H322.2528a77.6704 77.6704 0 0 1-77.6704-77.6192V483.9936a38.8096 38.8096 0 0 1 60.3136-32.3584l208.9984 138.8032 208.9984-138.8032A38.8096 38.8096 0 0 1 783.36 483.9936v207.616a77.6704 77.6704 0 0 1-77.824 77.6192z" fill="#FF9738" /><path d="M597.76 374.3232H430.08A25.6 25.6 0 1 1 430.08 322.56h167.7824a25.6 25.6 0 1 1 0 51.6096zM551.0144 465.0496H430.08a25.6 25.6 0 0 1 0-51.6096h121.0368a25.6 25.6 0 0 1 0 51.6096z" fill="#FFFFFF" /></svg>