<?xml version="1.0" standalone="no"?><!DOCTYPE svg PUBLIC "-//W3C//DTD SVG 1.1//EN" "http://www.w3.org/Graphics/SVG/1.1/DTD/svg11.dtd"><svg class="icon" width="32px" height="32.00px" viewBox="0 0 1024 1024" version="1.1" xmlns="http://www.w3.org/2000/svg"><path d="M512 510.72m-457.984 0a457.984 457.984 0 1 0 915.968 0 457.984 457.984 0 1 0-915.968 0Z" fill="#FFF5E9" /><path d="M502.4768 761.0368h216.832a43.9296 43.9296 0 0 0 43.9296-43.9296V449.4848a43.9296 43.9296 0 0 0-33.3312-42.6496L557.1072 363.52a43.9808 43.9808 0 0 0-54.6304 42.6496z" fill="#FECC87" /><path d="M602.88 761.0368H327.68a55.808 55.808 0 0 1-55.8592-55.808V365.4656a55.808 55.808 0 0 1 42.2912-54.1696l219.4432-54.7328a55.808 55.808 0 0 1 69.3248 54.1696z" fill="#FF9738" /><path d="M492.3904 465.92H376.4736a24.4736 24.4736 0 0 1 0-48.9472h115.9168a24.4736 24.4736 0 0 1 0 48.9472zM492.3904 582.8096H376.4736a24.4736 24.4736 0 0 1 0-48.9472h115.9168a24.4736 24.4736 0 0 1 0 48.9472z" fill="#FFFFFF" /></svg>