<?xml version="1.0" standalone="no"?><!DOCTYPE svg PUBLIC "-//W3C//DTD SVG 1.1//EN" "http://www.w3.org/Graphics/SVG/1.1/DTD/svg11.dtd"><svg class="icon" width="32px" height="32.00px" viewBox="0 0 1024 1024" version="1.1" xmlns="http://www.w3.org/2000/svg"><path d="M515.7888 512m-457.984 0a457.984 457.984 0 1 0 915.968 0 457.984 457.984 0 1 0-915.968 0Z" fill="#EBFAFF" /><path d="M279.9104 254.464m101.9392 0l268.4416 0q101.9392 0 101.9392 101.9392l0 314.5728q0 101.9392-101.9392 101.9392l-268.4416 0q-101.9392 0-101.9392-101.9392l0-314.5728q0-101.9392 101.9392-101.9392Z" fill="#059DFF" /><path d="M493.8752 627.6608a15.9744 15.9744 0 0 1-15.9744-15.9744v-91.6992a26.4192 26.4192 0 0 1 26.368-26.368h146.3296v-79.872h-50.176a16.0256 16.0256 0 0 1 0-32h55.808a26.368 26.368 0 0 1 26.3168 26.368v91.136a26.368 26.368 0 0 1-26.3168 26.368H509.9008v86.0672a16.0256 16.0256 0 0 1-16.0256 15.9744z m162.3552-213.9136z" fill="#97D8FF" /><path d="M354.304 332.4416m34.304 0l210.6368 0q34.304 0 34.304 34.304l0 62.0032q0 34.304-34.304 34.304l-210.6368 0q-34.304 0-34.304-34.304l0-62.0032q0-34.304 34.304-34.304Z" fill="#FFFFFF" /><path d="M451.6352 558.592m24.7808 0l34.9184 0q24.7808 0 24.7808 24.7808l0 90.0608q0 24.7808-24.7808 24.7808l-34.9184 0q-24.7808 0-24.7808-24.7808l0-90.0608q0-24.7808 24.7808-24.7808Z" fill="#FFFFFF" /></svg>