<?xml version="1.0" standalone="no"?><!DOCTYPE svg PUBLIC "-//W3C//DTD SVG 1.1//EN" "http://www.w3.org/Graphics/SVG/1.1/DTD/svg11.dtd"><svg class="icon" width="32px" height="32.00px" viewBox="0 0 1024 1024" version="1.1" xmlns="http://www.w3.org/2000/svg"><path d="M512 510.72m-457.984 0a457.984 457.984 0 1 0 915.968 0 457.984 457.984 0 1 0-915.968 0Z" fill="#FFFCEB" /><path d="M300.3904 279.6544m81.5104 0l250.5728 0q81.5104 0 81.5104 81.5104l0 290.9696q0 81.5104-81.5104 81.5104l-250.5728 0q-81.5104 0-81.5104-81.5104l0-290.9696q0-81.5104 81.5104-81.5104Z" fill="#FFB338" /><path d="M525.5168 525.312H396.6976a22.4256 22.4256 0 0 1 0-44.8h128.8192a22.4256 22.4256 0 0 1 0 44.8zM607.3856 425.9328H396.6976a22.4256 22.4256 0 0 1 0-44.8h210.688a22.4256 22.4256 0 1 1 0 44.8z" fill="#FFFFFF" /><path d="M634.1632 635.8528m-110.4896 0a110.4896 110.4896 0 1 0 220.9792 0 110.4896 110.4896 0 1 0-220.9792 0Z" fill="#FFDE8D" /><path d="M691.8144 606.9248l-43.3664-35.84a22.3744 22.3744 0 0 0-28.416 0c-44.9024 36.5568-45.3632 37.2224-47.5136 40.2944a22.3744 22.3744 0 0 0 34.0992 28.7744l5.12-4.352v53.6576a22.4256 22.4256 0 1 0 44.8 0V635.904l6.7072 5.5296a22.3744 22.3744 0 1 0 28.5184-34.5088z" fill="#FFFFFF" /></svg>