<?xml version="1.0" standalone="no"?><!DOCTYPE svg PUBLIC "-//W3C//DTD SVG 1.1//EN" "http://www.w3.org/Graphics/SVG/1.1/DTD/svg11.dtd"><svg class="icon" width="32px" height="32.00px" viewBox="0 0 1024 1024" version="1.1" xmlns="http://www.w3.org/2000/svg"><path d="M512 510.72m-457.984 0a457.984 457.984 0 1 0 915.968 0 457.984 457.984 0 1 0-915.968 0Z" fill="#F1EEFF" /><path d="M243.968 279.5008m62.0032 0l407.2448 0q62.0032 0 62.0032 62.0032l0 0.0512q0 62.0032-62.0032 62.0032l-407.2448 0q-62.0032 0-62.0032-62.0032l0-0.0512q0-62.0032 62.0032-62.0032Z" fill="#8769FF" /><path d="M304.64 343.9104h405.1968v351.5904a60.7744 60.7744 0 0 1-60.7744 60.7744H365.3632a60.7744 60.7744 0 0 1-60.7232-60.7744V343.9104z" fill="#C7B0FF" /><path d="M531.3024 496.64H392.4992a24.1664 24.1664 0 0 1 0-48.2816h138.8032a24.1664 24.1664 0 1 1 0 48.2816zM619.52 603.7504H392.4992a24.1664 24.1664 0 0 1 0-48.2816H619.52a24.1664 24.1664 0 1 1 0 48.2816z" fill="#FFFFFF" /></svg>