<?xml version="1.0" standalone="no"?><!DOCTYPE svg PUBLIC "-//W3C//DTD SVG 1.1//EN" "http://www.w3.org/Graphics/SVG/1.1/DTD/svg11.dtd"><svg class="icon" width="32px" height="32.00px" viewBox="0 0 1024 1024" version="1.1" xmlns="http://www.w3.org/2000/svg"><path d="M546.315378 66.395022c5.296356 21.105778 8.112356 43.201422 8.112355 65.951289 0 75.872711-31.277511 144.4352-81.635555 193.513245 50.761956-19.825778 106.001067-30.72 163.7888-30.72 121.742222 0 232.197689 48.315733 313.252978 126.805333-39.446756-192.768-202.996622-340.3264-403.518578-355.549867zM102.661689 332.379022C78.506667 387.350756 65.092267 448.108089 65.092267 512c0 122.020978 48.907378 232.618667 128.182044 313.264356-4.630756-25.895822-7.048533-52.559644-7.048533-79.786667 0-142.916267 66.577067-270.279111 170.404978-352.779378-23.034311 6.388622-47.3088 9.807644-72.379734 9.807645-69.905067 0.005689-133.620622-26.550044-181.589333-70.126934z" fill="#6E6EF9" /><path d="M512 958.907733c246.818133 0 446.907733-200.083911 446.907733-446.902044 0-30.850844-3.1232-60.967822-9.079466-90.055111-81.055289-78.495289-191.510756-126.805333-313.252978-126.805334-57.782044 0-113.026844 10.888533-163.7888 30.72 50.363733-49.072356 81.635556-117.640533 81.635555-193.513244 0-22.749867-2.816-44.839822-8.112355-65.951289a453.639396 453.639396 0 0 0-34.315378-1.297067c-182.926222 0-340.178489 109.903644-409.338311 267.286756 47.9744 43.576889 111.684267 70.132622 181.595022 70.132622 25.070933 0 49.345422-3.419022 72.379734-9.807644-103.827911 82.500267-170.404978 209.863111-170.404978 352.779378 0 27.227022 2.417778 53.890844 7.048533 79.786666 81.083733 82.466133 193.928533 133.626311 318.725689 133.626311z" fill="#8080FF" /><path d="M261.063111 201.5232l15.746845-53.845333 15.746844 53.845333 53.845333 15.746844-53.845333 15.746845-15.746844 53.845333-15.746845-53.845333-53.845333-15.746845z" fill="#BEBBFF" opacity=".6" /><path d="M682.012444 772.278044l19.882667-67.987911 19.882667 67.987911 67.987911 19.882667-67.987911 19.882667-19.882667 67.987911-19.882667-67.987911-67.987911-19.882667zM322.349511 334.307556l9.739378-33.297067 9.733689 33.297067 33.297066 9.733688-33.297066 9.739378-9.733689 33.291378-9.739378-33.291378-33.291378-9.739378z" fill="#BEBBFF" /><path d="M285.587911 488.379733H500.622222V342.738489H346.396444l0.011378 0.011378h-67.868444c-19.825778 0-35.953778 16.128-35.953778 35.953777v73.728c0 19.825778 16.128 35.953778 35.953778 35.953778h7.048533zM692.992 319.982933c0.671289-2.776178 1.024-5.649067 1.024-8.578844 0-9.619911-3.731911-18.648178-10.501689-25.423645l-34.753422-34.753422c-6.769778-6.769778-15.803733-10.501689-25.423645-10.501689-9.619911 0-18.648178 3.731911-25.423644 10.501689L529.152 319.982933h163.84zM494.848 319.982933L426.080711 251.221333c-6.769778-6.769778-15.803733-10.501689-25.423644-10.501689-9.619911 0-18.648178 3.731911-25.423645 10.501689l-34.753422 34.753423c-6.775467 6.769778-10.501689 15.803733-10.501689 25.423644 0 2.935467 0.352711 5.808356 1.024 8.584533h163.845689zM500.622222 511.135289H285.587911v209.92c0 34.309689 27.153067 62.225067 60.529778 62.225067H500.622222V511.135289zM745.466311 342.749867h-67.868444l0.011377-0.011378H523.377778v145.641244h222.088533c19.825778 0 35.953778-16.128 35.953778-35.953777v-73.728c-0.005689-19.820089-16.133689-35.948089-35.953778-35.948089zM523.377778 511.135289v272.145067h154.504533c33.376711 0 60.529778-27.915378 60.529778-62.225067v-209.92H523.377778z" fill="#FFFFFF" /></svg>