<?xml version="1.0" standalone="no"?><!DOCTYPE svg PUBLIC "-//W3C//DTD SVG 1.1//EN" "http://www.w3.org/Graphics/SVG/1.1/DTD/svg11.dtd"><svg class="icon" width="32px" height="32.00px" viewBox="0 0 1024 1024" version="1.1" xmlns="http://www.w3.org/2000/svg"><path d="M510.1056 510.72m-457.984 0a457.984 457.984 0 1 0 915.968 0 457.984 457.984 0 1 0-915.968 0Z" fill="#E3FFFC" /><path d="M668.672 771.072H351.5392a77.5168 77.5168 0 0 1-77.4656-77.4656V330.3936A77.5168 77.5168 0 0 1 351.5392 252.928h274.8928l119.7056 118.272v322.56a77.5168 77.5168 0 0 1-77.4656 77.312z" fill="#16D0AF" /><path d="M626.432 252.928v94.5152a26.1632 26.1632 0 0 0 26.112 26.112h93.5936v-2.3552z" fill="#ADF0EA" /><path d="M607.8976 547.84H399.36a25.6 25.6 0 0 1 0-51.2h208.5376a25.6 25.6 0 0 1 0 51.2zM607.8976 683.6736H399.36a25.6 25.6 0 0 1 0-51.2h208.5376a25.6 25.6 0 0 1 0 51.2zM517.7856 411.9552H399.36a25.6 25.6 0 0 1 0-51.2h118.4256a25.6 25.6 0 1 1 0 51.2z" fill="#FFFFFF" /></svg>