<?xml version="1.0" standalone="no"?><!DOCTYPE svg PUBLIC "-//W3C//DTD SVG 1.1//EN" "http://www.w3.org/Graphics/SVG/1.1/DTD/svg11.dtd"><svg class="icon" width="32px" height="32.00px" viewBox="0 0 1024 1024" version="1.1" xmlns="http://www.w3.org/2000/svg"><path d="M546.315378 66.395022c5.296356 21.105778 8.112356 43.201422 8.112355 65.951289 0 75.872711-31.277511 144.4352-81.635555 193.513245 50.761956-19.825778 106.001067-30.72 163.7888-30.72 121.742222 0 232.197689 48.315733 313.252978 126.805333-39.446756-192.768-202.996622-340.3264-403.518578-355.549867zM102.661689 332.379022C78.506667 387.350756 65.092267 448.108089 65.092267 512c0 122.020978 48.907378 232.618667 128.182044 313.264356-4.630756-25.895822-7.048533-52.559644-7.048533-79.786667 0-142.916267 66.577067-270.279111 170.404978-352.779378-23.034311 6.388622-47.3088 9.807644-72.379734 9.807645-69.905067 0.005689-133.620622-26.550044-181.589333-70.126934z" fill="#F4A067" /><path d="M512 958.907733c246.818133 0 446.907733-200.083911 446.907733-446.902044 0-30.850844-3.1232-60.967822-9.079466-90.055111-81.055289-78.495289-191.510756-126.805333-313.252978-126.805334-57.782044 0-113.026844 10.888533-163.7888 30.72 50.363733-49.072356 81.635556-117.640533 81.635555-193.513244 0-22.749867-2.816-44.839822-8.112355-65.951289a453.639396 453.639396 0 0 0-34.315378-1.297067c-182.926222 0-340.178489 109.903644-409.338311 267.286756 47.9744 43.576889 111.684267 70.132622 181.595022 70.132622 25.070933 0 49.345422-3.419022 72.379734-9.807644-103.827911 82.500267-170.404978 209.863111-170.404978 352.779378 0 27.227022 2.417778 53.890844 7.048533 79.786666 81.083733 82.466133 193.928533 133.626311 318.725689 133.626311z" fill="#F4B364" /><path d="M261.063111 201.5232l15.746845-53.845333 15.746844 53.845333 53.845333 15.746844-53.845333 15.746845-15.746844 53.845333-15.746845-53.845333-53.845333-15.746845z" fill="#FCD0B1" opacity=".6" /><path d="M682.012444 772.278044l19.882667-67.987911 19.882667 67.987911 67.987911 19.882667-67.987911 19.882667-19.882667 67.987911-19.882667-67.987911-67.987911-19.882667zM322.349511 334.307556l9.739378-33.297067 9.733689 33.297067 33.297066 9.733688-33.297066 9.739378-9.733689 33.291378-9.739378-33.291378-33.291378-9.739378z" fill="#FCD0B1" /><path d="M711.111111 423.156622c0-109.966222-89.144889-199.111111-199.111111-199.111111s-199.111111 89.144889-199.111111 199.111111v0.261689c0 31.254756 7.037156 61.166933 20.918044 88.923022 0 0.005689 0.005689 0.011378 0.005689 0.017067 0.079644 0.164978 0.159289 0.329956 0.244622 0.494933 0.210489 0.420978 0.455111 0.824889 0.711112 1.206045l0.335644 0.557511c2.315378 4.471467 4.795733 8.851911 7.429689 13.118578l149.720178 260.790044c8.749511 15.246222 30.742756 15.246222 39.492266 0l149.720178-260.790044c2.605511-4.209778 5.051733-8.527644 7.338667-12.942223l0.705422-1.166222c0.079644-0.130844 0.142222-0.261689 0.210489-0.392533 0.073956-0.130844 0.1536-0.256 0.221867-0.386845 14.040178-27.892622 21.162667-57.981156 21.162666-89.423644v-0.108089c0.005689-0.056889 0.005689-0.108089 0.005689-0.159289z m-125.155555 0.267378c0 40.777956-33.1776 73.955556-73.955556 73.955556s-73.955556-33.1776-73.955556-73.955556 33.1776-73.955556 73.955556-73.955556 73.955556 33.171911 73.955556 73.955556z" fill="#FFFFFF" /></svg>