<?xml version="1.0" standalone="no"?><!DOCTYPE svg PUBLIC "-//W3C//DTD SVG 1.1//EN" "http://www.w3.org/Graphics/SVG/1.1/DTD/svg11.dtd"><svg class="icon" width="32px" height="32.00px" viewBox="0 0 1024 1024" version="1.1" xmlns="http://www.w3.org/2000/svg"><path d="M546.315378 66.395022c5.296356 21.105778 8.112356 43.201422 8.112355 65.951289 0 75.872711-31.277511 144.4352-81.635555 193.513245 50.761956-19.825778 106.001067-30.72 163.7888-30.72 121.742222 0 232.197689 48.315733 313.252978 126.805333-39.446756-192.768-202.996622-340.3264-403.518578-355.549867zM102.661689 332.379022C78.506667 387.350756 65.092267 448.108089 65.092267 512c0 122.020978 48.907378 232.618667 128.182044 313.264356-4.630756-25.895822-7.048533-52.559644-7.048533-79.786667 0-142.916267 66.577067-270.279111 170.404978-352.779378-23.034311 6.388622-47.3088 9.807644-72.379734 9.807645-69.905067 0.005689-133.620622-26.550044-181.589333-70.126934z" fill="#6E6EF9" /><path d="M512 958.907733c246.818133 0 446.907733-200.083911 446.907733-446.902044 0-30.850844-3.1232-60.967822-9.079466-90.055111-81.055289-78.495289-191.510756-126.805333-313.252978-126.805334-57.782044 0-113.026844 10.888533-163.7888 30.72 50.363733-49.072356 81.635556-117.640533 81.635555-193.513244 0-22.749867-2.816-44.839822-8.112355-65.951289a453.639396 453.639396 0 0 0-34.315378-1.297067c-182.926222 0-340.178489 109.903644-409.338311 267.286756 47.9744 43.576889 111.684267 70.132622 181.595022 70.132622 25.070933 0 49.345422-3.419022 72.379734-9.807644-103.827911 82.500267-170.404978 209.863111-170.404978 352.779378 0 27.227022 2.417778 53.890844 7.048533 79.786666 81.083733 82.466133 193.928533 133.626311 318.725689 133.626311z" fill="#8080FF" /><path d="M261.063111 201.5232l15.746845-53.845333 15.746844 53.845333 53.845333 15.746844-53.845333 15.746845-15.746844 53.845333-15.746845-53.845333-53.845333-15.746845z" fill="#BEBBFF" opacity=".6" /><path d="M682.012444 772.278044l19.882667-67.987911 19.882667 67.987911 67.987911 19.882667-67.987911 19.882667-19.882667 67.987911-19.882667-67.987911-67.987911-19.882667zM322.349511 334.307556l9.739378-33.297067 9.733689 33.297067 33.297066 9.733688-33.297066 9.739378-9.733689 33.291378-9.739378-33.291378-33.291378-9.739378z" fill="#BEBBFF" /><path d="M773.2224 454.712889c-1.171911-5.353244-5.979022-9.102222-11.4688-8.942933-2.4064 0.073956-4.642133 0.113778-6.849422 0.113777-109.613511 0-201.910044-81.965511-214.687289-190.657422-0.642844-5.449956-5.080178-9.665422-10.558578-10.023822-5.865244-0.386844-11.804444-0.580267-17.658311-0.580267-36.090311 0-71.105422 7.071289-104.078222 21.014756-31.840711 13.4656-60.433067 32.745244-84.986311 57.298489-24.553244 24.553244-43.8272 53.1456-57.298489 84.986311C251.693511 440.894578 244.622222 475.909689 244.622222 512s7.071289 71.105422 21.014756 104.078222c13.4656 31.840711 32.745244 60.433067 57.298489 84.986311 24.553244 24.553244 53.1456 43.8272 84.986311 57.298489C440.894578 772.306489 475.909689 779.377778 512 779.377778c36.090311 0 71.105422-7.071289 104.078222-21.014756 31.840711-13.4656 60.433067-32.745244 84.986311-57.298489 24.553244-24.553244 43.8272-53.1456 57.298489-84.986311C772.306489 583.111111 779.377778 548.090311 779.377778 512c0-19.308089-2.070756-38.582044-6.155378-57.287111z m-309.378844-32.6656c0 23.563378-19.103289 42.666667-42.666667 42.666667s-42.666667-19.103289-42.666667-42.666667 19.103289-42.666667 42.666667-42.666667 42.666667 19.103289 42.666667 42.666667zM396.310756 533.942044c15.707022 0 28.444444 12.737422 28.444444 28.444445s-12.737422 28.444444-28.444444 28.444444-28.444444-12.737422-28.444445-28.444444 12.737422-28.444444 28.444445-28.444445z m94.407111 131.066312c-15.707022 0-28.444444-12.737422-28.444445-28.444445s12.737422-28.444444 28.444445-28.444444 28.444444 12.737422 28.444444 28.444444-12.737422 28.444444-28.444444 28.444445z" fill="#FFFFFF" /></svg>