<?xml version="1.0" standalone="no"?><!DOCTYPE svg PUBLIC "-//W3C//DTD SVG 1.1//EN" "http://www.w3.org/Graphics/SVG/1.1/DTD/svg11.dtd"><svg class="icon" width="32px" height="32.00px" viewBox="0 0 1024 1024" version="1.1" xmlns="http://www.w3.org/2000/svg"><path d="M512.8192 510.72m-457.984 0a457.984 457.984 0 1 0 915.968 0 457.984 457.984 0 1 0-915.968 0Z" fill="#FFF5E9" /><path d="M669.2352 768.9216H354.7648a76.8 76.8 0 0 1-76.8-76.8V331.9296a76.8 76.8 0 0 1 76.8-76.8h272.5888l118.6816 117.2992v319.6928a76.8 76.8 0 0 1-76.8 76.8z" fill="#FF9738" /><path d="M627.3536 255.0784v93.696a25.9072 25.9072 0 0 0 25.9072 25.9072h92.7744v-2.304z" fill="#FECC87" /><path d="M503.9616 612.5056a25.6 25.6 0 0 1-25.6-25.344v-20.736a75.8784 75.8784 0 0 1 46.08-69.9904A53.6576 53.6576 0 1 0 450.56 447.0272a25.6 25.6 0 1 1-50.688 0 104.704 104.704 0 0 1 33.1776-76.288A103.6288 103.6288 0 0 1 511.2832 343.04a104.3456 104.3456 0 0 1 33.3824 200.192 25.2416 25.2416 0 0 0-15.36 23.296v20.736a25.6 25.6 0 0 1-25.344 25.2416z" fill="#FFFFFF" /><path d="M505.6 660.48m-30.1056 0a30.1056 30.1056 0 1 0 60.2112 0 30.1056 30.1056 0 1 0-60.2112 0Z" fill="#FFFFFF" /></svg>