<?xml version="1.0" standalone="no"?><!DOCTYPE svg PUBLIC "-//W3C//DTD SVG 1.1//EN" "http://www.w3.org/Graphics/SVG/1.1/DTD/svg11.dtd"><svg class="icon" width="32px" height="32.00px" viewBox="0 0 1024 1024" version="1.1" xmlns="http://www.w3.org/2000/svg"><path d="M512 510.72m-457.984 0a457.984 457.984 0 1 0 915.968 0 457.984 457.984 0 1 0-915.968 0Z" fill="#EBFAFF" /><path d="M297.5232 253.696m101.9392 0l273.2544 0q101.9392 0 101.9392 101.9392l0 319.8464q0 101.9392-101.9392 101.9392l-273.2544 0q-101.9392 0-101.9392-101.9392l0-319.8464q0-101.9392 101.9392-101.9392Z" fill="#059DFF" /><path d="M345.088 406.9376H266.7008a32.3072 32.3072 0 1 1 0-64.5632H345.088a32.3072 32.3072 0 1 1 0 64.5632zM345.088 547.84H266.7008a32.3072 32.3072 0 0 1 0-64.6144H345.088a32.3072 32.3072 0 0 1 0 64.6144zM345.088 688.1792H266.7008a32.3072 32.3072 0 0 1 0-64.6144H345.088a32.3072 32.3072 0 0 1 0 64.6144z" fill="#97D8FF" /><path d="M668.1088 414.0032l-33.792-26.9824a17.92 17.92 0 0 0-25.1392 2.5088l-127.6416 152.7296a18.5344 18.5344 0 0 0-3.7888 7.7312l-10.24 45.1072a18.2784 18.2784 0 0 0 6.2464 18.176 17.9712 17.9712 0 0 0 15.36 3.7888 20.48 20.48 0 0 0 3.5328-1.1776l46.7456-20.9408a18.2272 18.2272 0 0 0 6.5024-5.12L670.72 440.0128a18.0224 18.0224 0 0 0 4.096-13.568 18.2784 18.2784 0 0 0-6.7072-12.4416z" fill="#FFFFFF" /></svg>