<?xml version="1.0" standalone="no"?><!DOCTYPE svg PUBLIC "-//W3C//DTD SVG 1.1//EN" "http://www.w3.org/Graphics/SVG/1.1/DTD/svg11.dtd"><svg class="icon" width="32px" height="32.00px" viewBox="0 0 1024 1024" version="1.1" xmlns="http://www.w3.org/2000/svg"><path d="M511.1296 512m-457.984 0a457.984 457.984 0 1 0 915.968 0 457.984 457.984 0 1 0-915.968 0Z" fill="#EBFAFF" /><path d="M275.9168 288.6144m63.1296 0l344.1664 0q63.1296 0 63.1296 63.1296l0 239.5136q0 63.1296-63.1296 63.1296l-344.1664 0q-63.1296 0-63.1296-63.1296l0-239.5136q0-63.1296 63.1296-63.1296Z" fill="#059DFF" /><path d="M511.1296 356.4544a115.0464 115.0464 0 1 0 115.0464 115.0464 115.0464 115.0464 0 0 0-115.0464-115.0464z m-25.6 129.4336a39.7824 39.7824 0 1 1 39.7824-39.7312 39.7312 39.7312 0 0 1-39.5264 39.7312z" fill="#FFFFFF" /><path d="M672.3584 740.4032H357.2224a24.1152 24.1152 0 1 1 0-48.1792h315.136a24.1152 24.1152 0 1 1 0 48.1792z" fill="#97D8FF" /></svg>