<?xml version="1.0" standalone="no"?><!DOCTYPE svg PUBLIC "-//W3C//DTD SVG 1.1//EN" "http://www.w3.org/Graphics/SVG/1.1/DTD/svg11.dtd"><svg class="icon" width="32px" height="32.00px" viewBox="0 0 1024 1024" version="1.1" xmlns="http://www.w3.org/2000/svg"><path d="M512 510.72m-457.984 0a457.984 457.984 0 1 0 915.968 0 457.984 457.984 0 1 0-915.968 0Z" fill="#FFF1F0" /><path d="M601.96864 697.8048L384.96256 480.80896l156.04224-156.04224a153.6 153.6 0 0 1 217.22112 0 153.6 153.6 0 0 1 0 217.22624l-156.03712 156.03712-0.22016-0.21504z" fill="#FFA4A4" /><path d="M269.4144 324.78208a153.6 153.6 0 0 1 217.22112 0l244.15744 244.15744-189.45536 189.45536a39.0656 39.0656 0 0 1-55.17312 0.14336l-216.7552-216.75008a153.6 153.6 0 0 1 0-217.22624z" fill="#F65856" /><path d="M424.3968 585.5232a25.6 25.6 0 0 1-17.8688-7.3728L317.44 489.1648a25.344 25.344 0 0 1 35.84-35.84l89.0368 88.8832a25.6 25.6 0 0 1-17.92 43.3152z" fill="#FFFFFF" /></svg>