<?xml version="1.0" standalone="no"?><!DOCTYPE svg PUBLIC "-//W3C//DTD SVG 1.1//EN" "http://www.w3.org/Graphics/SVG/1.1/DTD/svg11.dtd"><svg class="icon" width="32px" height="32.00px" viewBox="0 0 1024 1024" version="1.1" xmlns="http://www.w3.org/2000/svg"><path d="M546.315378 66.395022c5.296356 21.105778 8.112356 43.201422 8.112355 65.951289 0 75.872711-31.277511 144.4352-81.635555 193.513245 50.761956-19.825778 106.001067-30.72 163.7888-30.72 121.742222 0 232.197689 48.315733 313.252978 126.805333-39.446756-192.768-202.996622-340.3264-403.518578-355.549867zM102.661689 332.379022C78.506667 387.350756 65.092267 448.108089 65.092267 512c0 122.020978 48.907378 232.618667 128.182044 313.264356-4.630756-25.895822-7.048533-52.559644-7.048533-79.786667 0-142.916267 66.577067-270.279111 170.404978-352.779378-23.034311 6.388622-47.3088 9.807644-72.379734 9.807645-69.905067 0.005689-133.620622-26.550044-181.589333-70.126934z" fill="#46CE50" /><path d="M512 958.907733c246.818133 0 446.907733-200.083911 446.907733-446.902044 0-30.850844-3.1232-60.967822-9.079466-90.055111-81.055289-78.495289-191.510756-126.805333-313.252978-126.805334-57.782044 0-113.026844 10.888533-163.7888 30.72 50.363733-49.072356 81.635556-117.640533 81.635555-193.513244 0-22.749867-2.816-44.839822-8.112355-65.951289a453.639396 453.639396 0 0 0-34.315378-1.297067c-182.926222 0-340.178489 109.903644-409.338311 267.286756 47.9744 43.576889 111.684267 70.132622 181.595022 70.132622 25.070933 0 49.345422-3.419022 72.379734-9.807644-103.827911 82.500267-170.404978 209.863111-170.404978 352.779378 0 27.227022 2.417778 53.890844 7.048533 79.786666 81.083733 82.466133 193.928533 133.626311 318.725689 133.626311z" fill="#6CD872" /><path d="M261.063111 201.5232l15.746845-53.845333 15.746844 53.845333 53.845333 15.746844-53.845333 15.746845-15.746844 53.845333-15.746845-53.845333-53.845333-15.746845z" fill="#A3EFA3" opacity=".6" /><path d="M682.012444 772.278044l19.882667-67.987911 19.882667 67.987911 67.987911 19.882667-67.987911 19.882667-19.882667 67.987911-19.882667-67.987911-67.987911-19.882667zM322.349511 334.307556l9.739378-33.297067 9.733689 33.297067 33.297066 9.733688-33.297066 9.739378-9.733689 33.291378-9.739378-33.291378-33.291378-9.739378z" fill="#A3EFA3" /><path d="M756.622222 667.016533h-28.444444V442.4704c0-29.445689-5.7344-58.072178-17.043911-85.083022-10.916978-26.066489-26.5216-49.5104-46.392889-69.671822-19.876978-20.1728-43.002311-36.022044-68.721778-47.109689-26.669511-11.497244-54.943289-17.328356-84.024889-17.328356s-57.355378 5.831111-84.024889 17.328356c-25.719467 11.087644-48.839111 26.936889-68.721778 47.109689-19.871289 20.161422-35.475911 43.599644-46.392888 69.671822C301.556622 384.398222 295.822222 413.024711 295.822222 442.4704v224.546133h-28.444444c-6.286222 0-11.377778 5.091556-11.377778 11.377778s5.091556 11.377778 11.377778 11.377778h489.244444c6.286222 0 11.377778-5.091556 11.377778-11.377778s-5.091556-11.377778-11.377778-11.377778zM512 800.7168c51.137422 0 93.257956-38.5536 98.907022-88.177778H413.092978c5.649067 49.624178 47.7696 88.177778 98.907022 88.177778z" fill="#FFFFFF" /></svg>