<?xml version="1.0" standalone="no"?><!DOCTYPE svg PUBLIC "-//W3C//DTD SVG 1.1//EN" "http://www.w3.org/Graphics/SVG/1.1/DTD/svg11.dtd"><svg class="icon" width="32px" height="32.00px" viewBox="0 0 1024 1024" version="1.1" xmlns="http://www.w3.org/2000/svg"><path d="M512 512m-457.984 0a457.984 457.984 0 1 0 915.968 0 457.984 457.984 0 1 0-915.968 0Z" fill="#FFF1F0" /><path d="M294.144 539.8016l375.6544 208.9984a41.6256 41.6256 0 0 0 61.8496-36.4032V343.296a73.3696 73.3696 0 0 0-73.4208-73.3696H367.5136a73.3184 73.3184 0 0 0-73.3696 73.3696z" fill="#FFA4A4" /><path d="M731.648 539.8016l-375.6544 208.9984a41.6256 41.6256 0 0 1-61.8496-36.4032V343.296a73.3184 73.3184 0 0 1 73.3696-73.3696h290.7136a73.3696 73.3696 0 0 1 73.4208 73.3696z" fill="#F65856" /><path d="M523.9808 359.9872l20.48 41.728a12.4416 12.4416 0 0 0 9.3184 6.7584l46.08 6.656a12.3904 12.3904 0 0 1 6.8608 21.1456l-33.28 32.4096a12.3392 12.3392 0 0 0-3.5328 10.9568l7.8336 45.824a12.3904 12.3904 0 0 1-17.9712 13.056l-40.96-21.6064a12.3904 12.3904 0 0 0-11.52 0l-40.96 21.6064a12.3904 12.3904 0 0 1-17.9712-13.056L455.68 479.6416a12.4928 12.4928 0 0 0-3.584-10.9568l-33.28-32.4096a12.3904 12.3904 0 0 1 6.8608-21.1456l46.08-6.656A12.4928 12.4928 0 0 0 481.28 401.7152l20.48-41.728a12.3904 12.3904 0 0 1 22.2208 0z" fill="#FFFFFF" /></svg>