<?xml version="1.0" standalone="no"?><!DOCTYPE svg PUBLIC "-//W3C//DTD SVG 1.1//EN" "http://www.w3.org/Graphics/SVG/1.1/DTD/svg11.dtd"><svg class="icon" width="32px" height="32.00px" viewBox="0 0 1024 1024" version="1.1" xmlns="http://www.w3.org/2000/svg"><path d="M546.315378 66.395022c5.296356 21.105778 8.112356 43.201422 8.112355 65.951289 0 75.872711-31.277511 144.4352-81.635555 193.513245 50.761956-19.825778 106.001067-30.72 163.7888-30.72 121.742222 0 232.197689 48.315733 313.252978 126.805333-39.446756-192.768-202.996622-340.3264-403.518578-355.549867zM102.661689 332.379022C78.506667 387.350756 65.092267 448.108089 65.092267 512c0 122.020978 48.907378 232.618667 128.182044 313.264356-4.630756-25.895822-7.048533-52.559644-7.048533-79.786667 0-142.916267 66.577067-270.279111 170.404978-352.779378-23.034311 6.388622-47.3088 9.807644-72.379734 9.807645-69.905067 0.005689-133.620622-26.550044-181.589333-70.126934z" fill="#3598FE" /><path d="M512 958.907733c246.818133 0 446.907733-200.083911 446.907733-446.902044 0-30.850844-3.1232-60.967822-9.079466-90.055111-81.055289-78.495289-191.510756-126.805333-313.252978-126.805334-57.782044 0-113.026844 10.888533-163.7888 30.72 50.363733-49.072356 81.635556-117.640533 81.635555-193.513244 0-22.749867-2.816-44.839822-8.112355-65.951289a453.639396 453.639396 0 0 0-34.315378-1.297067c-182.926222 0-340.178489 109.903644-409.338311 267.286756 47.9744 43.576889 111.684267 70.132622 181.595022 70.132622 25.070933 0 49.345422-3.419022 72.379734-9.807644-103.827911 82.500267-170.404978 209.863111-170.404978 352.779378 0 27.227022 2.417778 53.890844 7.048533 79.786666 81.083733 82.466133 193.928533 133.626311 318.725689 133.626311z" fill="#53A7FE" /><path d="M261.063111 201.5232l15.746845-53.845333 15.746844 53.845333 53.845333 15.746844-53.845333 15.746845-15.746844 53.845333-15.746845-53.845333-53.845333-15.746845z" fill="#99CBFE" opacity=".6" /><path d="M682.012444 772.278044l19.882667-67.987911 19.882667 67.987911 67.987911 19.882667-67.987911 19.882667-19.882667 67.987911-19.882667-67.987911-67.987911-19.882667zM322.349511 334.307556l9.739378-33.297067 9.733689 33.297067 33.297066 9.733688-33.297066 9.739378-9.733689 33.291378-9.739378-33.291378-33.291378-9.739378z" fill="#99CBFE" /><path d="M731.426133 348.728889c-126.606222-5.387378-191.8464-91.306667-208.827733-117.509689-0.073956-0.113778-0.142222-0.216178-0.2048-0.318578a11.376071 11.376071 0 0 0-6.855111-6.024533c-1.024-0.324267-2.070756-0.500622-3.106133-0.534756-1.314133-0.056889-2.651022 0.108089-3.959467 0.523378a11.367538 11.367538 0 0 0-6.872178 6.0416c-0.062578 0.096711-0.130844 0.199111-0.199111 0.3072C484.420267 257.422222 419.180089 343.341511 292.573867 348.728889c-6.0928 0.261689-10.894222 5.2736-10.894223 11.3664v181.321955c0 0.6144 0.0512 1.223111 0.147912 1.831823 6.149689 37.757156 21.976178 74.757689 47.030044 109.971911 19.820089 27.858489 45.442844 54.670222 76.157156 79.684266 52.053333 42.399289 100.2496 64.790756 102.274844 65.723734a11.381191 11.381191 0 0 0 9.511822 0c2.025244-0.932978 50.204444-23.324444 102.235022-65.723734 30.697244-25.014044 56.308622-51.825778 76.128712-79.684266 25.048178-35.214222 40.863289-72.214756 47.012977-109.971911 0.096711-0.603022 0.147911-1.217422 0.147911-1.831823V360.095289c-0.005689-6.0928-4.807111-11.104711-10.899911-11.3664z m-117.5552 242.147555H410.385067c-5.137067 0-9.301333-4.164267-9.301334-9.301333 0-29.661867 11.548444-57.5488 32.523378-78.523733 12.009244-12.009244 26.294044-20.923733 41.870222-26.356622-14.392889-11.036444-23.694222-28.404622-23.694222-47.906134 0-33.274311 27.067733-60.347733 60.347733-60.347733s60.347733 27.073422 60.347734 60.347733c0 19.501511-9.301333 36.869689-23.694222 47.906134 15.581867 5.432889 29.860978 14.347378 41.870222 26.356622 20.974933 20.974933 32.523378 48.861867 32.523378 78.523733-0.005689 5.131378-4.169956 9.301333-9.307023 9.301333z" fill="#FFFFFF" /></svg>