<?xml version="1.0" standalone="no"?><!DOCTYPE svg PUBLIC "-//W3C//DTD SVG 1.1//EN" "http://www.w3.org/Graphics/SVG/1.1/DTD/svg11.dtd"><svg class="icon" width="32px" height="32.00px" viewBox="0 0 1024 1024" version="1.1" xmlns="http://www.w3.org/2000/svg"><path d="M546.315378 66.395022c5.296356 21.105778 8.112356 43.201422 8.112355 65.951289 0 75.872711-31.277511 144.4352-81.635555 193.513245 50.761956-19.825778 106.001067-30.72 163.7888-30.72 121.742222 0 232.197689 48.315733 313.252978 126.805333-39.446756-192.768-202.996622-340.3264-403.518578-355.549867zM102.661689 332.379022C78.506667 387.350756 65.092267 448.108089 65.092267 512c0 122.020978 48.907378 232.618667 128.182044 313.264356-4.630756-25.895822-7.048533-52.559644-7.048533-79.786667 0-142.916267 66.577067-270.279111 170.404978-352.779378-23.034311 6.388622-47.3088 9.807644-72.379734 9.807645-69.905067 0.005689-133.620622-26.550044-181.589333-70.126934z" fill="#F4A067" /><path d="M512 958.907733c246.818133 0 446.907733-200.083911 446.907733-446.902044 0-30.850844-3.1232-60.967822-9.079466-90.055111-81.055289-78.495289-191.510756-126.805333-313.252978-126.805334-57.782044 0-113.026844 10.888533-163.7888 30.72 50.363733-49.072356 81.635556-117.640533 81.635555-193.513244 0-22.749867-2.816-44.839822-8.112355-65.951289a453.639396 453.639396 0 0 0-34.315378-1.297067c-182.926222 0-340.178489 109.903644-409.338311 267.286756 47.9744 43.576889 111.684267 70.132622 181.595022 70.132622 25.070933 0 49.345422-3.419022 72.379734-9.807644-103.827911 82.500267-170.404978 209.863111-170.404978 352.779378 0 27.227022 2.417778 53.890844 7.048533 79.786666 81.083733 82.466133 193.928533 133.626311 318.725689 133.626311z" fill="#F4B364" /><path d="M261.063111 201.5232l15.746845-53.845333 15.746844 53.845333 53.845333 15.746844-53.845333 15.746845-15.746844 53.845333-15.746845-53.845333-53.845333-15.746845z" fill="#FCD0B1" opacity=".6" /><path d="M682.012444 772.278044l19.882667-67.987911 19.882667 67.987911 67.987911 19.882667-67.987911 19.882667-19.882667 67.987911-19.882667-67.987911-67.987911-19.882667zM322.349511 334.307556l9.739378-33.297067 9.733689 33.297067 33.297066 9.733688-33.297066 9.739378-9.733689 33.291378-9.739378-33.291378-33.291378-9.739378z" fill="#FCD0B1" /><path d="M757.225244 408.593067c-13.454222-31.670044-32.694044-60.148622-57.184711-84.6336-24.484978-24.490667-52.963556-43.7248-84.6336-57.184711C582.582044 252.831289 547.7888 245.76 512 245.76s-70.582044 7.071289-103.406933 21.014756c-31.670044 13.454222-60.148622 32.694044-84.6336 57.184711s-43.7248 52.963556-57.184711 84.6336C252.831289 441.417956 245.76 476.2112 245.76 512s7.071289 70.582044 21.014756 103.406933c13.454222 31.670044 32.694044 60.148622 57.184711 84.6336s52.963556 43.7248 84.6336 57.184711C441.417956 771.168711 476.2112 778.24 512 778.24s70.582044-7.071289 103.406933-21.014756c31.670044-13.454222 60.148622-32.694044 84.6336-57.184711 24.490667-24.490667 43.7248-52.963556 57.184711-84.6336 13.943467-32.824889 21.014756-67.618133 21.014756-103.406933s-7.071289-70.582044-21.014756-103.406933zM403.723378 540.444444c-15.707022 0-28.444444-12.737422-28.444445-28.444444s12.737422-28.444444 28.444445-28.444444 28.444444 12.737422 28.444444 28.444444-12.737422 28.444444-28.444444 28.444444z m108.282311 0c-15.707022 0-28.444444-12.737422-28.444445-28.444444s12.737422-28.444444 28.444445-28.444444 28.444444 12.737422 28.444444 28.444444-12.737422 28.444444-28.444444 28.444444z m108.276622 0c-15.707022 0-28.444444-12.737422-28.444444-28.444444s12.737422-28.444444 28.444444-28.444444 28.444444 12.737422 28.444445 28.444444-12.737422 28.444444-28.444445 28.444444z" fill="#FFFFFF" /></svg>