<?xml version="1.0" standalone="no"?><!DOCTYPE svg PUBLIC "-//W3C//DTD SVG 1.1//EN" "http://www.w3.org/Graphics/SVG/1.1/DTD/svg11.dtd"><svg class="icon" width="32px" height="32.00px" viewBox="0 0 1024 1024" version="1.1" xmlns="http://www.w3.org/2000/svg"><path d="M514.4576 510.72m-457.984 0a457.984 457.984 0 1 0 915.968 0 457.984 457.984 0 1 0-915.968 0Z" fill="#EBFAFF" /><path d="M760.32 750.592H273.4592a31.8464 31.8464 0 0 1-26.2656-49.8688l70.9632-103.424a31.8464 31.8464 0 0 1 26.2656-13.824h344.9344a31.8464 31.8464 0 0 1 26.2656 13.824l70.9632 103.424a31.8464 31.8464 0 0 1-26.2656 49.8688z" fill="#97D8FF" /><path d="M710.4 432.0768a193.4848 193.4848 0 1 0-386.9696 2.3552c1.3824 124.672 111.8208 225.536 179.8144 261.12a28.3136 28.3136 0 0 0 26.8288 0c74.0864-40.6016 180.3264-140.9024 180.3264-263.4752z" fill="#059DFF" /><path d="M516.9152 425.8816m-72.448 0a72.448 72.448 0 1 0 144.896 0 72.448 72.448 0 1 0-144.896 0Z" fill="#FFFFFF" /></svg>