<?xml version="1.0" standalone="no"?><!DOCTYPE svg PUBLIC "-//W3C//DTD SVG 1.1//EN" "http://www.w3.org/Graphics/SVG/1.1/DTD/svg11.dtd"><svg class="icon" width="32px" height="32.00px" viewBox="0 0 1024 1024" version="1.1" xmlns="http://www.w3.org/2000/svg"><path d="M507.4432 512m-457.984 0a457.984 457.984 0 1 0 915.968 0 457.984 457.984 0 1 0-915.968 0Z" fill="#FFF1F0" /><path d="M409.9584 252.6208c-45.0048 0-65.0752 25.344-72.0896 46.4896-5.12 15.104-25.6 78.4384-25.6 78.4384H258.816c-15.36 0-21.0432 5.12-21.0432 12.8v16.384c0 10.24 14.5408 15.6672 23.1936 15.6672H271.36a38.912 38.912 0 0 0-8.3968 17.92 638.208 638.208 0 0 0-8.6528 114.9952v108.6464a21.4528 21.4528 0 0 0 21.4528 21.4528h62.8224a21.504 21.504 0 0 0 21.4528-21.4528v-38.7072h305.1008v38.7072a21.4528 21.4528 0 0 0 21.4016 21.4528h62.8736a21.4528 21.4528 0 0 0 21.4016-21.4528v-108.4928A638.208 638.208 0 0 0 762.1632 440.32a38.3488 38.3488 0 0 0-8.4992-18.0736h10.5472c8.6016 0 23.1424-5.632 23.1424-15.6672v-16.384c0-7.7824-5.7344-12.8-21.0432-12.8H712.704s-20.48-63.3344-25.6-78.4384c-7.0656-21.1456-27.136-46.4896-72.0896-46.4896z" fill="#FB6956" /><path d="M446.3104 507.2384m19.4048 0l93.7472 0q19.4048 0 19.4048 19.4048l0 16.3328q0 19.4048-19.4048 19.4048l-93.7472 0q-19.4048 0-19.4048-19.4048l0-16.3328q0-19.4048 19.4048-19.4048Z" fill="#FFFFFF" /><path d="M363.776 540.3136m-39.3216 0a39.3216 39.3216 0 1 0 78.6432 0 39.3216 39.3216 0 1 0-78.6432 0Z" fill="#FFFFFF" /><path d="M662.0672 540.3136m-39.3216 0a39.3216 39.3216 0 1 0 78.6432 0 39.3216 39.3216 0 1 0-78.6432 0Z" fill="#FFFFFF" /><path d="M346.2144 389.5808L368.64 313.6512a17.8176 17.8176 0 0 1 17.152-12.9024h253.1328a17.8176 17.8176 0 0 1 17.152 12.9024l22.1696 75.9296a26.88 26.88 0 0 1-25.6 34.4576H372.0192a26.88 26.88 0 0 1-25.8048-34.4576z" fill="#FFFFFF" /><path d="M224.6144 707.9424m19.968 0l535.9616 0q19.968 0 19.968 19.968l0 12.6976q0 19.968-19.968 19.968l-535.9616 0q-19.968 0-19.968-19.968l0-12.6976q0-19.968 19.968-19.968Z" fill="#FB6956" /><path d="M732.16 504.4224h-75.264a59.4944 59.4944 0 0 0-51.5072 29.7472l-37.632 65.1776a59.392 59.392 0 0 0 0 59.4944l37.632 65.1776a59.4944 59.4944 0 0 0 51.5072 29.7472H732.16a59.4944 59.4944 0 0 0 51.5072-29.7472l37.632-65.1776a59.392 59.392 0 0 0 0-59.4944l-37.632-65.1776A59.4944 59.4944 0 0 0 732.16 504.4224z" fill="#FEAFA0" /><path d="M694.5792 707.0208a77.9264 77.9264 0 1 1 77.9776-77.9264 78.0288 78.0288 0 0 1-77.9776 77.9264z m0-115.5072a37.5808 37.5808 0 1 0 37.5808 37.5808 37.5808 37.5808 0 0 0-37.5808-37.5808z" fill="#FFFFFF" /></svg>