<?xml version="1.0" standalone="no"?><!DOCTYPE svg PUBLIC "-//W3C//DTD SVG 1.1//EN" "http://www.w3.org/Graphics/SVG/1.1/DTD/svg11.dtd"><svg class="icon" width="32px" height="32.00px" viewBox="0 0 1024 1024" version="1.1" xmlns="http://www.w3.org/2000/svg"><path d="M516.3008 512m-457.984 0a457.984 457.984 0 1 0 915.968 0 457.984 457.984 0 1 0-915.968 0Z" fill="#FFFCEB" /><path d="M514.048 660.48l-244.6336-116.8384-28.416-110.7968a36.3008 36.3008 0 0 1 46.08-43.6736l226.9696 70.7072 226.048-74.496a31.8464 31.8464 0 0 1 40.96 36.352l-22.6816 116.5824z" fill="#FFDE8D" /><path d="M314.112 709.2224l-44.6976-165.5808 213.1968-250.2144a40.2432 40.2432 0 0 1 60.8256-0.4096l215.04 245.2992-36.5568 168.6528a47.9744 47.9744 0 0 1-46.848 37.7344H360.3968a47.9232 47.9232 0 0 1-46.2848-35.4816z" fill="#FFB338" /><path d="M509.2352 672.3072a23.808 23.808 0 0 1-17.92-8.0896L408.6272 570.88a23.9616 23.9616 0 1 1 35.84-31.744l64.6144 72.96 63.4368-72.8064a23.9104 23.9104 0 1 1 36.096 31.4368L527.36 664.1152a24.0128 24.0128 0 0 1-17.92 8.192z" fill="#FFFFFF" /></svg>