<?xml version="1.0" standalone="no"?><!DOCTYPE svg PUBLIC "-//W3C//DTD SVG 1.1//EN" "http://www.w3.org/Graphics/SVG/1.1/DTD/svg11.dtd"><svg class="icon" width="32px" height="32.00px" viewBox="0 0 1024 1024" version="1.1" xmlns="http://www.w3.org/2000/svg"><path d="M509.696 512m-457.984 0a457.984 457.984 0 1 0 915.968 0 457.984 457.984 0 1 0-915.968 0Z" fill="#F1EEFF" /><path d="M285.7472 257.8432m66.6624 0l314.5728 0q66.6624 0 66.6624 66.6624l0 347.7504q0 66.6624-66.6624 66.6624l-314.5728 0q-66.6624 0-66.6624-66.6624l0-347.7504q0-66.6624 66.6624-66.6624Z" fill="#C7B0FF" /><path d="M574.6176 776.0896l-248.3712-31.9488a46.4384 46.4384 0 0 1-40.4992-46.08V294.8608a31.3344 31.3344 0 0 1 36.5568-30.72l264.3456 44.4416a40.96 40.96 0 0 1 34.2016 40.448v386.5088a40.96 40.96 0 0 1-46.2336 40.5504z" fill="#8769FF" /><path d="M537.088 610.4576a25.088 25.088 0 0 1-25.088-25.1392v-97.28a25.088 25.088 0 1 1 50.176 0v97.28a25.088 25.088 0 0 1-25.088 25.1392z" fill="#FFFFFF" /></svg>